%TF.GenerationSoftware,KiCad,Pcbnew,8.0.1*%
%TF.CreationDate,2024-04-16T09:43:10+08:00*%
%TF.ProjectId,tsa,7473612e-6b69-4636-9164-5f7063625858,rev?*%
%TF.SameCoordinates,Original*%
%TF.FileFunction,Copper,L1,Top*%
%TF.FilePolarity,Positive*%
%FSLAX46Y46*%
G04 Gerber Fmt 4.6, Leading zero omitted, Abs format (unit mm)*
G04 Created by KiCad (PCBNEW 8.0.1) date 2024-04-16 09:43:10*
%MOMM*%
%LPD*%
G01*
G04 APERTURE LIST*
G04 Aperture macros list*
%AMRoundRect*
0 Rectangle with rounded corners*
0 $1 Rounding radius*
0 $2 $3 $4 $5 $6 $7 $8 $9 X,Y pos of 4 corners*
0 Add a 4 corners polygon primitive as box body*
4,1,4,$2,$3,$4,$5,$6,$7,$8,$9,$2,$3,0*
0 Add four circle primitives for the rounded corners*
1,1,$1+$1,$2,$3*
1,1,$1+$1,$4,$5*
1,1,$1+$1,$6,$7*
1,1,$1+$1,$8,$9*
0 Add four rect primitives between the rounded corners*
20,1,$1+$1,$2,$3,$4,$5,0*
20,1,$1+$1,$4,$5,$6,$7,0*
20,1,$1+$1,$6,$7,$8,$9,0*
20,1,$1+$1,$8,$9,$2,$3,0*%
G04 Aperture macros list end*
%TA.AperFunction,SMDPad,CuDef*%
%ADD10RoundRect,0.140000X-0.140000X-0.170000X0.140000X-0.170000X0.140000X0.170000X-0.140000X0.170000X0*%
%TD*%
%TA.AperFunction,SMDPad,CuDef*%
%ADD11RoundRect,0.135000X0.135000X0.185000X-0.135000X0.185000X-0.135000X-0.185000X0.135000X-0.185000X0*%
%TD*%
%TA.AperFunction,SMDPad,CuDef*%
%ADD12RoundRect,0.135000X-0.185000X0.135000X-0.185000X-0.135000X0.185000X-0.135000X0.185000X0.135000X0*%
%TD*%
%TA.AperFunction,SMDPad,CuDef*%
%ADD13RoundRect,0.150000X0.512500X0.150000X-0.512500X0.150000X-0.512500X-0.150000X0.512500X-0.150000X0*%
%TD*%
%TA.AperFunction,SMDPad,CuDef*%
%ADD14RoundRect,0.135000X0.185000X-0.135000X0.185000X0.135000X-0.185000X0.135000X-0.185000X-0.135000X0*%
%TD*%
%TA.AperFunction,ComponentPad*%
%ADD15R,1.000000X1.000000*%
%TD*%
%TA.AperFunction,ComponentPad*%
%ADD16O,1.000000X1.000000*%
%TD*%
%TA.AperFunction,ViaPad*%
%ADD17C,0.508000*%
%TD*%
%TA.AperFunction,Conductor*%
%ADD18C,0.254000*%
%TD*%
%TA.AperFunction,Conductor*%
%ADD19C,0.152400*%
%TD*%
G04 APERTURE END LIST*
D10*
%TO.P,C13,1*%
%TO.N,+5V*%
X18000000Y-3000000D03*
%TO.P,C13,2*%
%TO.N,GND*%
X18960000Y-3000000D03*
%TD*%
D11*
%TO.P,R8,1*%
%TO.N,+5V*%
X15020000Y-8990000D03*
%TO.P,R8,2*%
%TO.N,/SCL*%
X14000000Y-8990000D03*
%TD*%
D12*
%TO.P,R2,1*%
%TO.N,+5V*%
X16800000Y7510000D03*
%TO.P,R2,2*%
%TO.N,/SPI_CS*%
X16800000Y6490000D03*
%TD*%
D13*
%TO.P,U3,1,SCL*%
%TO.N,/SCL*%
X12137500Y-8950000D03*
%TO.P,U3,2,GND*%
%TO.N,GND*%
X12137500Y-8000000D03*
%TO.P,U3,3,SDA*%
%TO.N,/SDA*%
X12137500Y-7050000D03*
%TO.P,U3,4,VCC*%
%TO.N,+5V*%
X9862500Y-7050000D03*
%TO.P,U3,5,wp*%
%TO.N,GND*%
X9862500Y-8950000D03*
%TD*%
D10*
%TO.P,C10,1*%
%TO.N,+5V*%
X18000000Y2910000D03*
%TO.P,C10,2*%
%TO.N,GND*%
X18960000Y2910000D03*
%TD*%
D12*
%TO.P,R1,1*%
%TO.N,/SPI_MISO*%
X10880000Y7510000D03*
%TO.P,R1,2*%
%TO.N,GND*%
X10880000Y6490000D03*
%TD*%
D10*
%TO.P,C12,1*%
%TO.N,+5V*%
X18000000Y-1030000D03*
%TO.P,C12,2*%
%TO.N,GND*%
X18960000Y-1030000D03*
%TD*%
D14*
%TO.P,R6,1*%
%TO.N,/SPI_MISO_1*%
X12360000Y6490000D03*
%TO.P,R6,2*%
%TO.N,/SPI_MISO*%
X12360000Y7510000D03*
%TD*%
D12*
%TO.P,R5,1*%
%TO.N,/SPI_MOSI*%
X13840000Y7510000D03*
%TO.P,R5,2*%
%TO.N,GND*%
X13840000Y6490000D03*
%TD*%
D10*
%TO.P,C11,1*%
%TO.N,+5V*%
X18000000Y940000D03*
%TO.P,C11,2*%
%TO.N,GND*%
X18960000Y940000D03*
%TD*%
D12*
%TO.P,R4,1*%
%TO.N,/SPI_SCK*%
X9400000Y7510000D03*
%TO.P,R4,2*%
%TO.N,GND*%
X9400000Y6490000D03*
%TD*%
%TO.P,R3,1*%
%TO.N,/SPI_CS*%
X15320000Y7510000D03*
%TO.P,R3,2*%
%TO.N,GND*%
X15320000Y6490000D03*
%TD*%
D11*
%TO.P,R7,1*%
%TO.N,+5V*%
X15020000Y-7000000D03*
%TO.P,R7,2*%
%TO.N,/SDA*%
X14000000Y-7000000D03*
%TD*%
D15*
%TO.P,J1,1,Pin_1*%
%TO.N,+5V*%
X16270000Y9800000D03*
D16*
%TO.P,J1,2,Pin_2*%
%TO.N,GND*%
X15000000Y9800000D03*
%TO.P,J1,3,Pin_3*%
%TO.N,/SPI_CS*%
X13730000Y9800000D03*
%TO.P,J1,4,Pin_4*%
%TO.N,/SPI_MOSI*%
X12460000Y9800000D03*
%TO.P,J1,5,Pin_5*%
%TO.N,/SPI_MISO*%
X11190000Y9800000D03*
%TO.P,J1,6,Pin_6*%
%TO.N,/SPI_SCK*%
X9920000Y9800000D03*
%TD*%
D17*
%TO.N,+5V*%
X17800000Y3600000D03*
X12142800Y-4800000D03*
%TO.N,GND*%
X11870000Y-600000D03*
X20400000Y-8200000D03*
X20400000Y-200000D03*
X11235000Y670000D03*
X12505000Y-600000D03*
X12505000Y670000D03*
X11870000Y670000D03*
X15800000Y-11000000D03*
X10000000Y670000D03*
X12200000Y11200000D03*
X9600000Y11200000D03*
X20400000Y6200000D03*
X14600000Y6000000D03*
X17600000Y11200000D03*
X11235000Y-600000D03*
X10600000Y670000D03*
X11400000Y4400000D03*
X9965000Y-600000D03*
X13200000Y-11000000D03*
X18400000Y-11000000D03*
X14800000Y11200000D03*
X14600000Y7000000D03*
X10200000Y-11000000D03*
X10600000Y-600000D03*
%TO.N,/SPI_MOSI*%
X13800000Y8200000D03*
%TO.N,/SPI_CS*%
X11013696Y3037431D03*
%TO.N,/SPI_SCK*%
X10400000Y3200000D03*
%TO.N,/SPI_MISO_1*%
X12400000Y5857200D03*
%TO.N,/SDA*%
X13200000Y-7000000D03*
%TO.N,/SCL*%
X14200000Y-8400000D03*
%TD*%
D18*
%TO.N,+5V*%
X9862500Y-7050000D02*
X11112500Y-5800000D01*
X15020000Y-7000000D02*
X15020000Y-8990000D01*
X12200000Y-5800000D02*
X13820000Y-5800000D01*
X16270000Y9800000D02*
X16270000Y8930000D01*
X17800000Y3110000D02*
X18000000Y2910000D01*
X15400000Y-7000000D02*
X15020000Y-7000000D01*
X18000000Y9000000D02*
X17200000Y9800000D01*
X11112500Y-5800000D02*
X12200000Y-5800000D01*
X13820000Y-5800000D02*
X15020000Y-7000000D01*
X17800000Y3600000D02*
X17800000Y3110000D01*
X18000000Y2910000D02*
X18000000Y9000000D01*
X17200000Y9800000D02*
X16270000Y9800000D01*
X12142800Y-5742800D02*
X12200000Y-5800000D01*
X18000000Y2910000D02*
X18000000Y-4400000D01*
D19*
X16800000Y8400000D02*
X16800000Y7510000D01*
X16270000Y8930000D02*
X16800000Y8400000D01*
D18*
X18000000Y-4400000D02*
X15400000Y-7000000D01*
X12142800Y-4800000D02*
X12142800Y-5742800D01*
D19*
%TO.N,/SPI_MOSI*%
X12460000Y8940000D02*
X13840000Y7560000D01*
X13800000Y8200000D02*
X13800000Y7550000D01*
D18*
X12460000Y9800000D02*
X12460000Y8940000D01*
D19*
X13800000Y7550000D02*
X13840000Y7510000D01*
X13840000Y7560000D02*
X13840000Y7510000D01*
%TO.N,/SPI_CS*%
X13376265Y5400000D02*
X16400000Y5400000D01*
X15320000Y8210000D02*
X14865000Y8665000D01*
D18*
X14135000Y8665000D02*
X14865000Y8665000D01*
D19*
X15320000Y7510000D02*
X15320000Y8210000D01*
X16400000Y5400000D02*
X16800000Y5800000D01*
X15780000Y7510000D02*
X16800000Y6490000D01*
X16800000Y5800000D02*
X16800000Y6490000D01*
D18*
X13730000Y9800000D02*
X13730000Y9070000D01*
X13730000Y9070000D02*
X14135000Y8665000D01*
D19*
X11013696Y3037431D02*
X13376265Y5400000D01*
X15320000Y7510000D02*
X15780000Y7510000D01*
%TO.N,/SPI_SCK*%
X9920000Y8320000D02*
X9400000Y7800000D01*
X10200000Y6710000D02*
X10200000Y3400000D01*
X9400000Y7510000D02*
X9400000Y7800000D01*
D18*
X9920000Y9800000D02*
X9920000Y9000000D01*
D19*
X9400000Y7510000D02*
X10200000Y6710000D01*
X10200000Y3400000D02*
X10400000Y3200000D01*
X9920000Y9000000D02*
X9920000Y8320000D01*
D18*
%TO.N,/SPI_MISO*%
X11190000Y9800000D02*
X11190000Y9000000D01*
D19*
X11190000Y7820000D02*
X10880000Y7510000D01*
X12360000Y7510000D02*
X10880000Y7510000D01*
X11190000Y9000000D02*
X11190000Y7820000D01*
%TO.N,/SPI_MISO_1*%
X12400000Y6450000D02*
X12360000Y6490000D01*
X12400000Y5857200D02*
X12400000Y6450000D01*
%TO.N,/SDA*%
X13200000Y-7000000D02*
X12187500Y-7000000D01*
X13200000Y-7000000D02*
X14000000Y-7000000D01*
X12187500Y-7000000D02*
X12137500Y-7050000D01*
%TO.N,/SCL*%
X14200000Y-8400000D02*
X14200000Y-8790000D01*
X12137500Y-8950000D02*
X13960000Y-8950000D01*
X14200000Y-8790000D02*
X14000000Y-8990000D01*
X13960000Y-8950000D02*
X14000000Y-8990000D01*
%TD*%
%TA.AperFunction,Conductor*%
%TO.N,GND*%
G36*
X11856323Y9506603D02*
G01*
X11886888Y9480956D01*
X11967707Y9363868D01*
X11967716Y9363859D01*
X12086386Y9258728D01*
X12139848Y9230668D01*
X12174473Y9192625D01*
X12180100Y9164082D01*
X12180100Y8903151D01*
X12199175Y8831961D01*
X12236023Y8768139D01*
X12236027Y8768133D01*
X12288133Y8716027D01*
X12288139Y8716023D01*
X12351961Y8679176D01*
X12351969Y8679172D01*
X12393789Y8667966D01*
X12427498Y8648503D01*
X13345074Y7730928D01*
X13366814Y7684308D01*
X13367100Y7677754D01*
X13367100Y7332018D01*
X13369892Y7307944D01*
X13413370Y7209477D01*
X13413372Y7209474D01*
X13489474Y7133372D01*
X13489480Y7133368D01*
X13572320Y7096790D01*
X13609432Y7061171D01*
X13614966Y7010029D01*
X13586332Y6967296D01*
X13571041Y6959769D01*
X13571332Y6959147D01*
X13458026Y6906312D01*
X13458019Y6906307D01*
X13373692Y6821980D01*
X13373687Y6821973D01*
X13323284Y6713883D01*
X13316800Y6664624D01*
X13316800Y6591600D01*
X14363200Y6591600D01*
X14363200Y6664624D01*
X14356715Y6713883D01*
X14306312Y6821973D01*
X14306307Y6821980D01*
X14221980Y6906307D01*
X14221973Y6906312D01*
X14108668Y6959147D01*
X14109633Y6961218D01*
X14075541Y6986200D01*
X14063299Y7036162D01*
X14086037Y7082304D01*
X14107680Y7096790D01*
X14190517Y7133367D01*
X14190519Y7133368D01*
X14190521Y7133369D01*
X14190522Y7133370D01*
X14190525Y7133372D01*
X14266627Y7209474D01*
X14266629Y7209477D01*
X14266631Y7209479D01*
X14310107Y7307943D01*
X14312900Y7332016D01*
X14312900Y7687984D01*
X14310107Y7712057D01*
X14266631Y7810521D01*
X14190521Y7886631D01*
X14186900Y7888229D01*
X14149786Y7923844D01*
X14144248Y7974985D01*
X14150267Y7991163D01*
X14191808Y8072692D01*
X14191809Y8072694D01*
X14211972Y8200000D01*
X14196429Y8298136D01*
X14206244Y8348631D01*
X14246220Y8381003D01*
X14270703Y8385100D01*
X14789755Y8385100D01*
X14838093Y8367507D01*
X14842929Y8363074D01*
X15068874Y8137129D01*
X15090614Y8090509D01*
X15090900Y8083955D01*
X15090900Y7989243D01*
X15073307Y7940905D01*
X15046076Y7920452D01*
X14969479Y7886631D01*
X14969477Y7886629D01*
X14969474Y7886627D01*
X14893372Y7810525D01*
X14893370Y7810522D01*
X14893369Y7810521D01*
X14869602Y7756693D01*
X14849892Y7712055D01*
X14847100Y7687981D01*
X14847100Y7332018D01*
X14849892Y7307944D01*
X14893370Y7209477D01*
X14893372Y7209474D01*
X14969474Y7133372D01*
X14969480Y7133368D01*
X15052320Y7096790D01*
X15089432Y7061171D01*
X15094966Y7010029D01*
X15066332Y6967296D01*
X15051041Y6959769D01*
X15051332Y6959147D01*
X14938026Y6906312D01*
X14938019Y6906307D01*
X14853692Y6821980D01*
X14853687Y6821973D01*
X14803284Y6713883D01*
X14796800Y6664624D01*
X14796800Y6591600D01*
X15843200Y6591600D01*
X15843200Y6664624D01*
X15836715Y6713883D01*
X15786312Y6821973D01*
X15786307Y6821980D01*
X15701980Y6906307D01*
X15701973Y6906312D01*
X15588668Y6959147D01*
X15589633Y6961218D01*
X15555541Y6986200D01*
X15543299Y7036162D01*
X15566037Y7082304D01*
X15587680Y7096790D01*
X15670517Y7133367D01*
X15670519Y7133368D01*
X15670521Y7133369D01*
X15670522Y7133370D01*
X15670525Y7133372D01*
X15698403Y7161250D01*
X15745023Y7182990D01*
X15794710Y7169676D01*
X15804751Y7161250D01*
X16305074Y6660928D01*
X16326814Y6614308D01*
X16327100Y6607754D01*
X16327100Y6312018D01*
X16329892Y6287944D01*
X16373370Y6189477D01*
X16373372Y6189474D01*
X16449474Y6113372D01*
X16449481Y6113367D01*
X16526075Y6079548D01*
X16563188Y6043929D01*
X16570900Y6010756D01*
X16570900Y5926045D01*
X16553307Y5877707D01*
X16548874Y5872870D01*
X16327128Y5651125D01*
X16280508Y5629386D01*
X16273954Y5629100D01*
X13330693Y5629100D01*
X13321157Y5625149D01*
X13306031Y5618884D01*
X13246488Y5594221D01*
X11116736Y3464468D01*
X11070116Y3442728D01*
X11051798Y3443367D01*
X11013696Y3449403D01*
X11013695Y3449403D01*
X10989495Y3445570D01*
X10886390Y3429240D01*
X10886388Y3429239D01*
X10886387Y3429239D01*
X10886386Y3429239D01*
X10837073Y3404112D01*
X10786016Y3397842D01*
X10742875Y3425858D01*
X10735929Y3436974D01*
X10733292Y3442151D01*
X10642151Y3533292D01*
X10527306Y3591809D01*
X10492536Y3597315D01*
X10447547Y3622252D01*
X10429111Y3670275D01*
X10429100Y3671589D01*
X10429100Y5987788D01*
X10446693Y6036126D01*
X10491242Y6061846D01*
X10536080Y6055943D01*
X10606117Y6023284D01*
X10655376Y6016800D01*
X10778400Y6016800D01*
X10778400Y6388400D01*
X10981600Y6388400D01*
X10981600Y6016800D01*
X11104624Y6016800D01*
X11153883Y6023284D01*
X11261973Y6073687D01*
X11261980Y6073692D01*
X11346307Y6158019D01*
X11346312Y6158026D01*
X11396715Y6266116D01*
X11402758Y6312018D01*
X11887100Y6312018D01*
X11889892Y6287944D01*
X11933370Y6189477D01*
X12013489Y6109358D01*
X12035228Y6062738D01*
X12027317Y6022043D01*
X12008191Y5984508D01*
X11988028Y5857200D01*
X11988028Y5857199D01*
X12008191Y5729892D01*
X12066708Y5615047D01*
X12157847Y5523908D01*
X12272693Y5465391D01*
X12272691Y5465391D01*
X12399999Y5445228D01*
X12400000Y5445228D01*
X12400001Y5445228D01*
X12527307Y5465391D01*
X12642152Y5523908D01*
X12733291Y5615047D01*
X12791808Y5729892D01*
X12791809Y5729894D01*
X12811972Y5857200D01*
X12791809Y5984506D01*
X12745677Y6075043D01*
X12739408Y6126096D01*
X12759505Y6162353D01*
X12786631Y6189479D01*
X12830107Y6287943D01*
X12832900Y6312016D01*
X12832900Y6388400D01*
X13316800Y6388400D01*
X13316800Y6315375D01*
X13323284Y6266116D01*
X13373687Y6158026D01*
X13373692Y6158019D01*
X13458019Y6073692D01*
X13458026Y6073687D01*
X13566116Y6023284D01*
X13615376Y6016800D01*
X13738400Y6016800D01*
X13738400Y6388400D01*
X13941600Y6388400D01*
X13941600Y6016800D01*
X14064624Y6016800D01*
X14113883Y6023284D01*
X14221973Y6073687D01*
X14221980Y6073692D01*
X14306307Y6158019D01*
X14306312Y6158026D01*
X14356715Y6266116D01*
X14363200Y6315375D01*
X14363200Y6388400D01*
X14796800Y6388400D01*
X14796800Y6315375D01*
X14803284Y6266116D01*
X14853687Y6158026D01*
X14853692Y6158019D01*
X14938019Y6073692D01*
X14938026Y6073687D01*
X15046116Y6023284D01*
X15095376Y6016800D01*
X15218400Y6016800D01*
X15218400Y6388400D01*
X15421600Y6388400D01*
X15421600Y6016800D01*
X15544624Y6016800D01*
X15593883Y6023284D01*
X15701973Y6073687D01*
X15701980Y6073692D01*
X15786307Y6158019D01*
X15786312Y6158026D01*
X15836715Y6266116D01*
X15843200Y6315375D01*
X15843200Y6388400D01*
X15421600Y6388400D01*
X15218400Y6388400D01*
X14796800Y6388400D01*
X14363200Y6388400D01*
X13941600Y6388400D01*
X13738400Y6388400D01*
X13316800Y6388400D01*
X12832900Y6388400D01*
X12832900Y6667984D01*
X12830107Y6692057D01*
X12786631Y6790521D01*
X12710521Y6866631D01*
X12612057Y6910107D01*
X12587984Y6912900D01*
X12132016Y6912900D01*
X12107943Y6910107D01*
X12009479Y6866631D01*
X12009477Y6866629D01*
X12009474Y6866627D01*
X11933372Y6790525D01*
X11933370Y6790522D01*
X11933369Y6790521D01*
X11917937Y6755571D01*
X11889892Y6692055D01*
X11887100Y6667981D01*
X11887100Y6312018D01*
X11402758Y6312018D01*
X11403200Y6315375D01*
X11403200Y6388400D01*
X10981600Y6388400D01*
X10778400Y6388400D01*
X10778400Y6516400D01*
X10795993Y6564738D01*
X10840542Y6590458D01*
X10853600Y6591600D01*
X11403200Y6591600D01*
X11403200Y6664624D01*
X11396715Y6713883D01*
X11346312Y6821973D01*
X11346307Y6821980D01*
X11261980Y6906307D01*
X11261973Y6906312D01*
X11148668Y6959147D01*
X11149633Y6961218D01*
X11115541Y6986200D01*
X11103299Y7036162D01*
X11126037Y7082304D01*
X11147680Y7096790D01*
X11230517Y7133367D01*
X11230519Y7133368D01*
X11230521Y7133369D01*
X11230522Y7133370D01*
X11230525Y7133372D01*
X11306627Y7209474D01*
X11306629Y7209477D01*
X11306631Y7209479D01*
X11309777Y7216605D01*
X11318375Y7236075D01*
X11353994Y7273188D01*
X11387167Y7280900D01*
X11852833Y7280900D01*
X11901171Y7263307D01*
X11921625Y7236075D01*
X11933367Y7209482D01*
X11933372Y7209474D01*
X12009474Y7133372D01*
X12009477Y7133370D01*
X12009478Y7133369D01*
X12009479Y7133369D01*
X12009484Y7133367D01*
X12107944Y7089892D01*
X12127012Y7087680D01*
X12132016Y7087100D01*
X12132018Y7087100D01*
X12587982Y7087100D01*
X12587984Y7087100D01*
X12593568Y7087747D01*
X12612055Y7089892D01*
X12629100Y7097418D01*
X12710521Y7133369D01*
X12710522Y7133370D01*
X12710525Y7133372D01*
X12786627Y7209474D01*
X12786629Y7209477D01*
X12786631Y7209479D01*
X12830107Y7307943D01*
X12832900Y7332016D01*
X12832900Y7687984D01*
X12830107Y7712057D01*
X12786631Y7810521D01*
X12710521Y7886631D01*
X12612057Y7930107D01*
X12587984Y7932900D01*
X12132016Y7932900D01*
X12107943Y7930107D01*
X12009479Y7886631D01*
X12009477Y7886629D01*
X12009474Y7886627D01*
X11933372Y7810525D01*
X11933367Y7810517D01*
X11921625Y7783925D01*
X11886006Y7746812D01*
X11852833Y7739100D01*
X11494300Y7739100D01*
X11445962Y7756693D01*
X11420242Y7801242D01*
X11419100Y7814300D01*
X11419100Y8816863D01*
X11429175Y8854463D01*
X11450824Y8891961D01*
X11452480Y8898138D01*
X11469900Y8963150D01*
X11469900Y9164082D01*
X11487493Y9212420D01*
X11510152Y9230668D01*
X11563613Y9258728D01*
X11682283Y9363859D01*
X11682292Y9363868D01*
X11758208Y9473852D01*
X11763112Y9480956D01*
X11805050Y9510742D01*
X11856323Y9506603D01*
G37*
%TD.AperFunction*%
%TA.AperFunction,Conductor*%
G36*
X14365761Y9462329D02*
G01*
X14396327Y9436682D01*
X14469780Y9330268D01*
X14469789Y9330258D01*
X14597599Y9217029D01*
X14597605Y9217025D01*
X14748806Y9137668D01*
X14898399Y9100796D01*
X14898400Y9100797D01*
X14898400Y9464877D01*
X14953922Y9450000D01*
X15046078Y9450000D01*
X15101600Y9464877D01*
X15101600Y9100796D01*
X15251193Y9137668D01*
X15402394Y9217025D01*
X15402396Y9217026D01*
X15498356Y9302039D01*
X15546204Y9320924D01*
X15594997Y9304634D01*
X15621903Y9260793D01*
X15621978Y9260422D01*
X15625972Y9240340D01*
X15659764Y9189767D01*
X15710342Y9155972D01*
X15710343Y9155971D01*
X15754943Y9147100D01*
X15914900Y9147100D01*
X15963238Y9129507D01*
X15988958Y9084958D01*
X15990100Y9071900D01*
X15990100Y8893150D01*
X15991220Y8888972D01*
X16009175Y8821961D01*
X16046023Y8758139D01*
X16046027Y8758133D01*
X16098133Y8706027D01*
X16098139Y8706023D01*
X16161961Y8669176D01*
X16161970Y8669172D01*
X16203786Y8657967D01*
X16237496Y8638505D01*
X16548874Y8327128D01*
X16570614Y8280507D01*
X16570900Y8273953D01*
X16570900Y7989243D01*
X16553307Y7940905D01*
X16526076Y7920452D01*
X16449479Y7886631D01*
X16449477Y7886629D01*
X16449474Y7886627D01*
X16373372Y7810525D01*
X16373370Y7810522D01*
X16373369Y7810521D01*
X16349602Y7756693D01*
X16329892Y7712055D01*
X16327100Y7687981D01*
X16327100Y7468444D01*
X16309507Y7420106D01*
X16264958Y7394386D01*
X16214300Y7403319D01*
X16198730Y7415265D01*
X15909775Y7704222D01*
X15890859Y7712057D01*
X15850234Y7728884D01*
X15850231Y7728884D01*
X15825571Y7739100D01*
X15825570Y7739100D01*
X15818307Y7740545D01*
X15818637Y7742204D01*
X15778829Y7756693D01*
X15758375Y7783925D01*
X15750728Y7801242D01*
X15746631Y7810521D01*
X15670521Y7886631D01*
X15593924Y7920451D01*
X15556813Y7956069D01*
X15549100Y7989243D01*
X15549100Y8255569D01*
X15549100Y8255571D01*
X15528199Y8306030D01*
X15524241Y8315585D01*
X15519460Y8327128D01*
X15514222Y8339775D01*
X15156493Y8697502D01*
X15137032Y8731210D01*
X15125825Y8773037D01*
X15088976Y8836862D01*
X15036862Y8888976D01*
X14973037Y8925825D01*
X14901850Y8944900D01*
X14901848Y8944900D01*
X14282088Y8944900D01*
X14233750Y8962493D01*
X14228914Y8966925D01*
X14190594Y9005245D01*
X14066684Y9129153D01*
X14044946Y9175771D01*
X14058260Y9225459D01*
X14084911Y9248911D01*
X14103610Y9258725D01*
X14103613Y9258728D01*
X14222283Y9363859D01*
X14222286Y9363863D01*
X14222292Y9363868D01*
X14272552Y9436682D01*
X14314488Y9466468D01*
X14365761Y9462329D01*
G37*
%TD.AperFunction*%
%TA.AperFunction,Conductor*%
G36*
X20773138Y11782407D02*
G01*
X20798858Y11737858D01*
X20800000Y11724800D01*
X20800000Y-11524800D01*
X20782407Y-11573138D01*
X20737858Y-11598858D01*
X20724800Y-11600000D01*
X8075200Y-11600000D01*
X8026862Y-11582407D01*
X8001142Y-11537858D01*
X8000000Y-11524800D01*
X8000000Y-9051600D01*
X8996801Y-9051600D01*
X8996801Y-9133523D01*
X9006801Y-9202172D01*
X9006802Y-9202174D01*
X9058575Y-9308076D01*
X9141923Y-9391424D01*
X9247826Y-9443198D01*
X9316472Y-9453199D01*
X9760900Y-9453199D01*
X9760900Y-9051600D01*
X9964100Y-9051600D01*
X9964100Y-9453199D01*
X10408519Y-9453199D01*
X10408523Y-9453198D01*
X10477172Y-9443198D01*
X10477174Y-9443197D01*
X10583076Y-9391424D01*
X10666424Y-9308076D01*
X10718198Y-9202173D01*
X10728199Y-9133533D01*
X10728200Y-9133521D01*
X10728200Y-9051600D01*
X9964100Y-9051600D01*
X9760900Y-9051600D01*
X8996801Y-9051600D01*
X8000000Y-9051600D01*
X8000000Y-8848400D01*
X8996800Y-8848400D01*
X9760900Y-8848400D01*
X9760900Y-8446800D01*
X9964100Y-8446800D01*
X9964100Y-8848400D01*
X10728199Y-8848400D01*
X10728199Y-8766481D01*
X10728198Y-8766476D01*
X10718198Y-8697827D01*
X10718197Y-8697825D01*
X10666424Y-8591923D01*
X10583076Y-8508575D01*
X10477173Y-8456801D01*
X10408533Y-8446800D01*
X9964100Y-8446800D01*
X9760900Y-8446800D01*
X9316481Y-8446800D01*
X9316476Y-8446801D01*
X9247827Y-8456801D01*
X9247825Y-8456802D01*
X9141923Y-8508575D01*
X9058575Y-8591923D01*
X9006801Y-8697826D01*
X8996800Y-8766466D01*
X8996800Y-8848400D01*
X8000000Y-8848400D01*
X8000000Y6388400D01*
X8876800Y6388400D01*
X8876800Y6315375D01*
X8883284Y6266116D01*
X8933687Y6158026D01*
X8933692Y6158019D01*
X9018019Y6073692D01*
X9018026Y6073687D01*
X9126116Y6023284D01*
X9175376Y6016800D01*
X9298400Y6016800D01*
X9298400Y6388400D01*
X8876800Y6388400D01*
X8000000Y6388400D01*
X8000000Y6591600D01*
X8876800Y6591600D01*
X9426400Y6591600D01*
X9474738Y6574007D01*
X9500458Y6529458D01*
X9501600Y6516400D01*
X9501600Y6016800D01*
X9624624Y6016800D01*
X9673883Y6023284D01*
X9781973Y6073687D01*
X9781980Y6073692D01*
X9842526Y6134238D01*
X9889146Y6155978D01*
X9938833Y6142664D01*
X9968338Y6100527D01*
X9970900Y6081064D01*
X9970900Y3445570D01*
X9970900Y3354430D01*
X9992868Y3301392D01*
X9997665Y3260853D01*
X9988028Y3200002D01*
X9988028Y3199999D01*
X10008191Y3072692D01*
X10066708Y2957847D01*
X10157847Y2866708D01*
X10272693Y2808191D01*
X10272691Y2808191D01*
X10399999Y2788028D01*
X10400000Y2788028D01*
X10400001Y2788028D01*
X10527308Y2808191D01*
X10527309Y2808191D01*
X10576621Y2833318D01*
X10627678Y2839588D01*
X10670819Y2811572D01*
X10677763Y2800460D01*
X10680401Y2795282D01*
X10680404Y2795278D01*
X10771543Y2704139D01*
X10886389Y2645622D01*
X10886387Y2645622D01*
X11013695Y2625459D01*
X11013696Y2625459D01*
X11013697Y2625459D01*
X11141003Y2645622D01*
X11255848Y2704139D01*
X11346987Y2795278D01*
X11405504Y2910123D01*
X11405505Y2910125D01*
X11425668Y3037431D01*
X11419633Y3075532D01*
X11429448Y3126027D01*
X11440733Y3140471D01*
X13449136Y5148874D01*
X13495756Y5170614D01*
X13502310Y5170900D01*
X16445573Y5170900D01*
X16470232Y5181114D01*
X16470233Y5181115D01*
X16529775Y5205778D01*
X16529777Y5205779D01*
X16994219Y5670222D01*
X16994219Y5670223D01*
X16994221Y5670225D01*
X17017914Y5727425D01*
X17029100Y5754429D01*
X17029100Y6010756D01*
X17046693Y6059094D01*
X17073925Y6079548D01*
X17150518Y6113367D01*
X17150525Y6113372D01*
X17226627Y6189474D01*
X17226629Y6189477D01*
X17226631Y6189479D01*
X17270107Y6287943D01*
X17272900Y6312016D01*
X17272900Y6667984D01*
X17270107Y6692057D01*
X17226631Y6790521D01*
X17150521Y6866631D01*
X17052057Y6910107D01*
X17027984Y6912900D01*
X17027982Y6912900D01*
X16732245Y6912900D01*
X16683907Y6930493D01*
X16679071Y6934926D01*
X16655271Y6958726D01*
X16633531Y7005346D01*
X16646845Y7055033D01*
X16688982Y7084538D01*
X16708445Y7087100D01*
X17027982Y7087100D01*
X17027984Y7087100D01*
X17033568Y7087747D01*
X17052055Y7089892D01*
X17069100Y7097418D01*
X17150521Y7133369D01*
X17150522Y7133370D01*
X17150525Y7133372D01*
X17226627Y7209474D01*
X17226629Y7209477D01*
X17226631Y7209479D01*
X17270107Y7307943D01*
X17272900Y7332016D01*
X17272900Y7687984D01*
X17270107Y7712057D01*
X17226631Y7810521D01*
X17150521Y7886631D01*
X17073924Y7920451D01*
X17036813Y7956069D01*
X17029100Y7989243D01*
X17029100Y8445570D01*
X17029100Y8445571D01*
X17009397Y8493138D01*
X16994222Y8529775D01*
X16571926Y8952071D01*
X16550186Y8998691D01*
X16549900Y9005245D01*
X16549900Y9071900D01*
X16567493Y9120238D01*
X16612042Y9145958D01*
X16625100Y9147100D01*
X16785055Y9147100D01*
X16785057Y9147101D01*
X16829659Y9155972D01*
X16880232Y9189764D01*
X16880232Y9189765D01*
X16880234Y9189766D01*
X16914028Y9240342D01*
X16922900Y9284943D01*
X16922900Y9444900D01*
X16940493Y9493238D01*
X16985042Y9518958D01*
X16998100Y9520100D01*
X17052914Y9520100D01*
X17101252Y9502507D01*
X17106088Y9498074D01*
X17698074Y8906088D01*
X17719814Y8859468D01*
X17720100Y8852914D01*
X17720100Y4061848D01*
X17702507Y4013510D01*
X17677029Y3996335D01*
X17677967Y3994496D01*
X17557847Y3933291D01*
X17466708Y3842152D01*
X17408191Y3727307D01*
X17388028Y3600000D01*
X17388028Y3599999D01*
X17408191Y3472692D01*
X17466708Y3357847D01*
X17498074Y3326482D01*
X17519814Y3279862D01*
X17520100Y3273308D01*
X17520100Y3073151D01*
X17539175Y3001962D01*
X17557026Y2971043D01*
X17567100Y2933444D01*
X17567100Y2696268D01*
X17569940Y2671780D01*
X17569941Y2671779D01*
X17614172Y2571604D01*
X17614172Y2571603D01*
X17645662Y2540114D01*
X17691604Y2494172D01*
X17691605Y2494171D01*
X17696531Y2489246D01*
X17694468Y2487183D01*
X17717343Y2455188D01*
X17720100Y2435013D01*
X17720100Y1414986D01*
X17702507Y1366648D01*
X17696281Y1361005D01*
X17696531Y1360756D01*
X17614175Y1278400D01*
X17614173Y1278397D01*
X17614172Y1278396D01*
X17586355Y1215394D01*
X17569941Y1178220D01*
X17569940Y1178219D01*
X17567100Y1153731D01*
X17567100Y726268D01*
X17569940Y701780D01*
X17569941Y701779D01*
X17614172Y601604D01*
X17614172Y601603D01*
X17645662Y570114D01*
X17691604Y524172D01*
X17691605Y524171D01*
X17696531Y519246D01*
X17694468Y517183D01*
X17717343Y485188D01*
X17720100Y465013D01*
X17720100Y-555013D01*
X17702507Y-603351D01*
X17696283Y-608998D01*
X17696531Y-609246D01*
X17691605Y-614171D01*
X17691604Y-614172D01*
X17655351Y-650424D01*
X17614172Y-691603D01*
X17614172Y-691604D01*
X17569941Y-791779D01*
X17569940Y-791780D01*
X17567100Y-816268D01*
X17567100Y-1243731D01*
X17569940Y-1268219D01*
X17569941Y-1268221D01*
X17614172Y-1368396D01*
X17614173Y-1368397D01*
X17614175Y-1368400D01*
X17696531Y-1450756D01*
X17694460Y-1452826D01*
X17717325Y-1484747D01*
X17720100Y-1504986D01*
X17720100Y-2525013D01*
X17702507Y-2573351D01*
X17696283Y-2578998D01*
X17696531Y-2579246D01*
X17691605Y-2584171D01*
X17691604Y-2584172D01*
X17655351Y-2620424D01*
X17614172Y-2661603D01*
X17614172Y-2661604D01*
X17569941Y-2761779D01*
X17569940Y-2761780D01*
X17567100Y-2786268D01*
X17567100Y-3213731D01*
X17569940Y-3238219D01*
X17569941Y-3238221D01*
X17614172Y-3338396D01*
X17614173Y-3338397D01*
X17614175Y-3338400D01*
X17696531Y-3420756D01*
X17694460Y-3422826D01*
X17717325Y-3454747D01*
X17720100Y-3474986D01*
X17720100Y-4252914D01*
X17702507Y-4301252D01*
X17698074Y-4306088D01*
X15428831Y-6575330D01*
X15382211Y-6597070D01*
X15332524Y-6583756D01*
X15322483Y-6575330D01*
X15320525Y-6573372D01*
X15320522Y-6573370D01*
X15320521Y-6573369D01*
X15222057Y-6529893D01*
X15222055Y-6529892D01*
X15203568Y-6527747D01*
X15197984Y-6527100D01*
X15197982Y-6527100D01*
X14974086Y-6527100D01*
X14925748Y-6509507D01*
X14920912Y-6505074D01*
X13991866Y-5576027D01*
X13991860Y-5576023D01*
X13980099Y-5569233D01*
X13978373Y-5568236D01*
X13928038Y-5539175D01*
X13904308Y-5532816D01*
X13856850Y-5520100D01*
X13856848Y-5520100D01*
X12497900Y-5520100D01*
X12449562Y-5502507D01*
X12423842Y-5457958D01*
X12422700Y-5444900D01*
X12422700Y-5126691D01*
X12440293Y-5078353D01*
X12444715Y-5073527D01*
X12476092Y-5042151D01*
X12534609Y-4927306D01*
X12554772Y-4800000D01*
X12534609Y-4672694D01*
X12476092Y-4557849D01*
X12476091Y-4557847D01*
X12384952Y-4466708D01*
X12270106Y-4408191D01*
X12270108Y-4408191D01*
X12142801Y-4388028D01*
X12142799Y-4388028D01*
X12015492Y-4408191D01*
X11900647Y-4466708D01*
X11809508Y-4557847D01*
X11750991Y-4672692D01*
X11730828Y-4799999D01*
X11730828Y-4800000D01*
X11750991Y-4927307D01*
X11809507Y-5042150D01*
X11809508Y-5042151D01*
X11840874Y-5073517D01*
X11862614Y-5120136D01*
X11862900Y-5126691D01*
X11862900Y-5444900D01*
X11845307Y-5493238D01*
X11800758Y-5518958D01*
X11787700Y-5520100D01*
X11149350Y-5520100D01*
X11075650Y-5520100D01*
X11040056Y-5529637D01*
X11004461Y-5539175D01*
X10940639Y-5576023D01*
X10940633Y-5576027D01*
X9941588Y-6575074D01*
X9894968Y-6596814D01*
X9888414Y-6597100D01*
X9304774Y-6597100D01*
X9299510Y-6597710D01*
X9279451Y-6600037D01*
X9175854Y-6645780D01*
X9175851Y-6645782D01*
X9095782Y-6725851D01*
X9095780Y-6725854D01*
X9050037Y-6829451D01*
X9047710Y-6849510D01*
X9047100Y-6854774D01*
X9047100Y-7245226D01*
X9047892Y-7252055D01*
X9050037Y-7270548D01*
X9095780Y-7374145D01*
X9095782Y-7374148D01*
X9175851Y-7454217D01*
X9175854Y-7454219D01*
X9175855Y-7454220D01*
X9279450Y-7499962D01*
X9304774Y-7502900D01*
X9304776Y-7502900D01*
X10420224Y-7502900D01*
X10420226Y-7502900D01*
X10445550Y-7499962D01*
X10549145Y-7454220D01*
X10629220Y-7374145D01*
X10674962Y-7270550D01*
X10677900Y-7245226D01*
X10677900Y-6854774D01*
X10674962Y-6829450D01*
X10635710Y-6740555D01*
X10632280Y-6689231D01*
X10651326Y-6657011D01*
X11206413Y-6101924D01*
X11253032Y-6080186D01*
X11259586Y-6079900D01*
X12163150Y-6079900D01*
X12236850Y-6079900D01*
X13672914Y-6079900D01*
X13721252Y-6097493D01*
X13726088Y-6101926D01*
X14022888Y-6398726D01*
X14044628Y-6445346D01*
X14031314Y-6495033D01*
X13989177Y-6524538D01*
X13969714Y-6527100D01*
X13822016Y-6527100D01*
X13817189Y-6527660D01*
X13797944Y-6529892D01*
X13699477Y-6573370D01*
X13699474Y-6573372D01*
X13623372Y-6649474D01*
X13623367Y-6649482D01*
X13606926Y-6686717D01*
X13571307Y-6723830D01*
X13520166Y-6729364D01*
X13484960Y-6709516D01*
X13442152Y-6666708D01*
X13327306Y-6608191D01*
X13327308Y-6608191D01*
X13200001Y-6588028D01*
X13199999Y-6588028D01*
X13072692Y-6608191D01*
X12957848Y-6666708D01*
X12954631Y-6669925D01*
X12908009Y-6691661D01*
X12858323Y-6678344D01*
X12848290Y-6669925D01*
X12824145Y-6645780D01*
X12720550Y-6600038D01*
X12720548Y-6600037D01*
X12701100Y-6597781D01*
X12695226Y-6597100D01*
X11579774Y-6597100D01*
X11574510Y-6597710D01*
X11554451Y-6600037D01*
X11450854Y-6645780D01*
X11450851Y-6645782D01*
X11370782Y-6725851D01*
X11370780Y-6725854D01*
X11325037Y-6829451D01*
X11322710Y-6849510D01*
X11322100Y-6854774D01*
X11322100Y-7245226D01*
X11322892Y-7252055D01*
X11325037Y-7270548D01*
X11370780Y-7374145D01*
X11370782Y-7374148D01*
X11435327Y-7438693D01*
X11457067Y-7485313D01*
X11443753Y-7535000D01*
X11421397Y-7554116D01*
X11421996Y-7554954D01*
X11416923Y-7558575D01*
X11333575Y-7641923D01*
X11281801Y-7747826D01*
X11271800Y-7816466D01*
X11271800Y-7898400D01*
X13003199Y-7898400D01*
X13003199Y-7816481D01*
X13003198Y-7816476D01*
X12993198Y-7747827D01*
X12993197Y-7747825D01*
X12941424Y-7641923D01*
X12858076Y-7558575D01*
X12853004Y-7554954D01*
X12854067Y-7553464D01*
X12824114Y-7522378D01*
X12820582Y-7471059D01*
X12839670Y-7438694D01*
X12904220Y-7374145D01*
X12904220Y-7374144D01*
X12909148Y-7369217D01*
X12911141Y-7371210D01*
X12943327Y-7348168D01*
X12994615Y-7352113D01*
X12997691Y-7353593D01*
X13025938Y-7367985D01*
X13072692Y-7391808D01*
X13072694Y-7391809D01*
X13170487Y-7407297D01*
X13199999Y-7411972D01*
X13200000Y-7411972D01*
X13200001Y-7411972D01*
X13220164Y-7408778D01*
X13327306Y-7391809D01*
X13442151Y-7333292D01*
X13484960Y-7290482D01*
X13531579Y-7268743D01*
X13581266Y-7282056D01*
X13606925Y-7313280D01*
X13623369Y-7350521D01*
X13623370Y-7350522D01*
X13623372Y-7350525D01*
X13699474Y-7426627D01*
X13699477Y-7426629D01*
X13699479Y-7426631D01*
X13797943Y-7470107D01*
X13822016Y-7472900D01*
X13822018Y-7472900D01*
X14177982Y-7472900D01*
X14177984Y-7472900D01*
X14202057Y-7470107D01*
X14300521Y-7426631D01*
X14376631Y-7350521D01*
X14420107Y-7252057D01*
X14422900Y-7227984D01*
X14422900Y-6980286D01*
X14440493Y-6931948D01*
X14485042Y-6906228D01*
X14535700Y-6915161D01*
X14551274Y-6927112D01*
X14575074Y-6950912D01*
X14596814Y-6997532D01*
X14597100Y-7004086D01*
X14597100Y-7227984D01*
X14597970Y-7235489D01*
X14599892Y-7252055D01*
X14599893Y-7252057D01*
X14643369Y-7350521D01*
X14643370Y-7350522D01*
X14643372Y-7350525D01*
X14718074Y-7425227D01*
X14739814Y-7471847D01*
X14740100Y-7478401D01*
X14740100Y-8254293D01*
X14722507Y-8302631D01*
X14677958Y-8328351D01*
X14627300Y-8319418D01*
X14594235Y-8280013D01*
X14593379Y-8277527D01*
X14591808Y-8272692D01*
X14533291Y-8157847D01*
X14442152Y-8066708D01*
X14327306Y-8008191D01*
X14327308Y-8008191D01*
X14200001Y-7988028D01*
X14199999Y-7988028D01*
X14072692Y-8008191D01*
X13957847Y-8066708D01*
X13866708Y-8157847D01*
X13808191Y-8272692D01*
X13788028Y-8399999D01*
X13788028Y-8400000D01*
X13797368Y-8458973D01*
X13787553Y-8509468D01*
X13753470Y-8539529D01*
X13699480Y-8563368D01*
X13699474Y-8563372D01*
X13623372Y-8639474D01*
X13623370Y-8639477D01*
X13623369Y-8639478D01*
X13623369Y-8639479D01*
X13607209Y-8676076D01*
X13571592Y-8713187D01*
X13538418Y-8720900D01*
X12995187Y-8720900D01*
X12946849Y-8703307D01*
X12926395Y-8676076D01*
X12904220Y-8625855D01*
X12904219Y-8625854D01*
X12904217Y-8625851D01*
X12839672Y-8561306D01*
X12817932Y-8514686D01*
X12831246Y-8464999D01*
X12853603Y-8445886D01*
X12853004Y-8445046D01*
X12858076Y-8441424D01*
X12941424Y-8358076D01*
X12993198Y-8252173D01*
X13003199Y-8183533D01*
X13003200Y-8183521D01*
X13003200Y-8101600D01*
X11271801Y-8101600D01*
X11271801Y-8183523D01*
X11281801Y-8252172D01*
X11281802Y-8252174D01*
X11333575Y-8358076D01*
X11416923Y-8441424D01*
X11421996Y-8445046D01*
X11420931Y-8446537D01*
X11450882Y-8477614D01*
X11454419Y-8528932D01*
X11435328Y-8561306D01*
X11370780Y-8625854D01*
X11325037Y-8729451D01*
X11322100Y-8754776D01*
X11322100Y-9145223D01*
X11325037Y-9170548D01*
X11370780Y-9274145D01*
X11370782Y-9274148D01*
X11450851Y-9354217D01*
X11450854Y-9354219D01*
X11450855Y-9354220D01*
X11554450Y-9399962D01*
X11579774Y-9402900D01*
X11579776Y-9402900D01*
X12695224Y-9402900D01*
X12695226Y-9402900D01*
X12720550Y-9399962D01*
X12824145Y-9354220D01*
X12904220Y-9274145D01*
X12926395Y-9223923D01*
X12962013Y-9186813D01*
X12995187Y-9179100D01*
X13505609Y-9179100D01*
X13553947Y-9196693D01*
X13577179Y-9236933D01*
X13578408Y-9236599D01*
X13579892Y-9242053D01*
X13579892Y-9242054D01*
X13579893Y-9242057D01*
X13623369Y-9340521D01*
X13623370Y-9340522D01*
X13623372Y-9340525D01*
X13699474Y-9416627D01*
X13699477Y-9416629D01*
X13699479Y-9416631D01*
X13797943Y-9460107D01*
X13822016Y-9462900D01*
X13822018Y-9462900D01*
X14177982Y-9462900D01*
X14177984Y-9462900D01*
X14202057Y-9460107D01*
X14300521Y-9416631D01*
X14376631Y-9340521D01*
X14420107Y-9242057D01*
X14422900Y-9217984D01*
X14422900Y-8865496D01*
X14428624Y-8836718D01*
X14429100Y-8835570D01*
X14429100Y-8777492D01*
X14446693Y-8729154D01*
X14451126Y-8724318D01*
X14468726Y-8706718D01*
X14515346Y-8684978D01*
X14565033Y-8698292D01*
X14594538Y-8740429D01*
X14597100Y-8759892D01*
X14597100Y-9217981D01*
X14599892Y-9242055D01*
X14599893Y-9242057D01*
X14643369Y-9340521D01*
X14643370Y-9340522D01*
X14643372Y-9340525D01*
X14719474Y-9416627D01*
X14719477Y-9416629D01*
X14719479Y-9416631D01*
X14817943Y-9460107D01*
X14842016Y-9462900D01*
X14842018Y-9462900D01*
X15197982Y-9462900D01*
X15197984Y-9462900D01*
X15222057Y-9460107D01*
X15320521Y-9416631D01*
X15396631Y-9340521D01*
X15440107Y-9242057D01*
X15442900Y-9217984D01*
X15442900Y-8762016D01*
X15440107Y-8737943D01*
X15396631Y-8639479D01*
X15396629Y-8639477D01*
X15396627Y-8639474D01*
X15321926Y-8564773D01*
X15300186Y-8518153D01*
X15299900Y-8511599D01*
X15299900Y-7478401D01*
X15317493Y-7430063D01*
X15321926Y-7425227D01*
X15396627Y-7350525D01*
X15396631Y-7350521D01*
X15412055Y-7315587D01*
X15447672Y-7278476D01*
X15461375Y-7273328D01*
X15508037Y-7260825D01*
X15571862Y-7223976D01*
X18223976Y-4571862D01*
X18260825Y-4508038D01*
X18279900Y-4436850D01*
X18279900Y-4363150D01*
X18279900Y-3474986D01*
X18297493Y-3426648D01*
X18303718Y-3421005D01*
X18303469Y-3420756D01*
X18385824Y-3338400D01*
X18385828Y-3338396D01*
X18385830Y-3338390D01*
X18389765Y-3332648D01*
X18391956Y-3334149D01*
X18419675Y-3305245D01*
X18470814Y-3299690D01*
X18513560Y-3328306D01*
X18521030Y-3340938D01*
X18534528Y-3369885D01*
X18534533Y-3369892D01*
X18620107Y-3455466D01*
X18620114Y-3455471D01*
X18729802Y-3506619D01*
X18779790Y-3513199D01*
X18858400Y-3513199D01*
X18858400Y-3101600D01*
X19061600Y-3101600D01*
X19061600Y-3513199D01*
X19140207Y-3513199D01*
X19190194Y-3506619D01*
X19190200Y-3506617D01*
X19299885Y-3455471D01*
X19299892Y-3455466D01*
X19385466Y-3369892D01*
X19385471Y-3369885D01*
X19436619Y-3260197D01*
X19443200Y-3210209D01*
X19443200Y-3101600D01*
X19061600Y-3101600D01*
X18858400Y-3101600D01*
X18858400Y-2486800D01*
X19061600Y-2486800D01*
X19061600Y-2898400D01*
X19443199Y-2898400D01*
X19443199Y-2789791D01*
X19436619Y-2739805D01*
X19436617Y-2739799D01*
X19385471Y-2630114D01*
X19385466Y-2630107D01*
X19299892Y-2544533D01*
X19299885Y-2544528D01*
X19190197Y-2493380D01*
X19140209Y-2486800D01*
X19061600Y-2486800D01*
X18858400Y-2486800D01*
X18779791Y-2486800D01*
X18729805Y-2493380D01*
X18729799Y-2493382D01*
X18620114Y-2544528D01*
X18620107Y-2544533D01*
X18534533Y-2630107D01*
X18534529Y-2630113D01*
X18521030Y-2659062D01*
X18484656Y-2695435D01*
X18433412Y-2699917D01*
X18391275Y-2670412D01*
X18388556Y-2665587D01*
X18385827Y-2661603D01*
X18354331Y-2630107D01*
X18308396Y-2584172D01*
X18308394Y-2584171D01*
X18303469Y-2579246D01*
X18305531Y-2577183D01*
X18282657Y-2545188D01*
X18279900Y-2525013D01*
X18279900Y-1504986D01*
X18297493Y-1456648D01*
X18303718Y-1451005D01*
X18303469Y-1450756D01*
X18385824Y-1368400D01*
X18385828Y-1368396D01*
X18385830Y-1368390D01*
X18389765Y-1362648D01*
X18391956Y-1364149D01*
X18419675Y-1335245D01*
X18470814Y-1329690D01*
X18513560Y-1358306D01*
X18521030Y-1370938D01*
X18534528Y-1399885D01*
X18534533Y-1399892D01*
X18620107Y-1485466D01*
X18620114Y-1485471D01*
X18729802Y-1536619D01*
X18779790Y-1543199D01*
X18858400Y-1543199D01*
X18858400Y-1131600D01*
X19061600Y-1131600D01*
X19061600Y-1543199D01*
X19140207Y-1543199D01*
X19190194Y-1536619D01*
X19190200Y-1536617D01*
X19299885Y-1485471D01*
X19299892Y-1485466D01*
X19385466Y-1399892D01*
X19385471Y-1399885D01*
X19436619Y-1290197D01*
X19443200Y-1240209D01*
X19443200Y-1131600D01*
X19061600Y-1131600D01*
X18858400Y-1131600D01*
X18858400Y-516800D01*
X19061600Y-516800D01*
X19061600Y-928400D01*
X19443199Y-928400D01*
X19443199Y-819791D01*
X19436619Y-769805D01*
X19436617Y-769799D01*
X19385471Y-660114D01*
X19385466Y-660107D01*
X19299892Y-574533D01*
X19299885Y-574528D01*
X19190197Y-523380D01*
X19140209Y-516800D01*
X19061600Y-516800D01*
X18858400Y-516800D01*
X18779791Y-516800D01*
X18729805Y-523380D01*
X18729799Y-523382D01*
X18620114Y-574528D01*
X18620107Y-574533D01*
X18534533Y-660107D01*
X18534529Y-660113D01*
X18521030Y-689062D01*
X18484656Y-725435D01*
X18433412Y-729917D01*
X18391275Y-700412D01*
X18388556Y-695587D01*
X18385827Y-691603D01*
X18354331Y-660107D01*
X18308396Y-614172D01*
X18308394Y-614171D01*
X18303469Y-609246D01*
X18305531Y-607183D01*
X18282657Y-575188D01*
X18279900Y-555013D01*
X18279900Y465013D01*
X18297493Y513351D01*
X18303716Y518998D01*
X18303469Y519246D01*
X18308394Y524171D01*
X18308396Y524172D01*
X18385828Y601604D01*
X18385828Y601605D01*
X18389765Y607352D01*
X18391955Y605851D01*
X18419685Y634759D01*
X18470825Y640307D01*
X18513566Y611684D01*
X18521030Y599062D01*
X18534529Y570113D01*
X18534533Y570107D01*
X18620107Y484533D01*
X18620114Y484528D01*
X18729802Y433380D01*
X18779791Y426800D01*
X18858400Y426800D01*
X18858400Y838400D01*
X19061600Y838400D01*
X19061600Y426800D01*
X19140208Y426800D01*
X19140209Y426801D01*
X19190194Y433380D01*
X19190200Y433382D01*
X19299885Y484528D01*
X19299892Y484533D01*
X19385466Y570107D01*
X19385471Y570114D01*
X19436619Y679802D01*
X19443200Y729790D01*
X19443200Y838400D01*
X19061600Y838400D01*
X18858400Y838400D01*
X18858400Y1453199D01*
X19061600Y1453199D01*
X19061600Y1041600D01*
X19443199Y1041600D01*
X19443199Y1150208D01*
X19436619Y1200194D01*
X19436617Y1200200D01*
X19385471Y1309885D01*
X19385466Y1309892D01*
X19299892Y1395466D01*
X19299885Y1395471D01*
X19190197Y1446619D01*
X19140209Y1453199D01*
X19061600Y1453199D01*
X18858400Y1453199D01*
X18779791Y1453199D01*
X18729805Y1446619D01*
X18729799Y1446617D01*
X18620114Y1395471D01*
X18620107Y1395466D01*
X18534533Y1309892D01*
X18534528Y1309885D01*
X18521030Y1280938D01*
X18484656Y1244564D01*
X18433412Y1240082D01*
X18391275Y1269586D01*
X18388552Y1274418D01*
X18385830Y1278390D01*
X18385828Y1278396D01*
X18354332Y1309892D01*
X18303469Y1360756D01*
X18305539Y1362826D01*
X18282675Y1394747D01*
X18279900Y1414986D01*
X18279900Y2435013D01*
X18297493Y2483351D01*
X18303716Y2488998D01*
X18303469Y2489246D01*
X18308394Y2494171D01*
X18308396Y2494172D01*
X18385828Y2571604D01*
X18385828Y2571605D01*
X18389765Y2577352D01*
X18391955Y2575851D01*
X18419685Y2604759D01*
X18470825Y2610307D01*
X18513566Y2581684D01*
X18521030Y2569062D01*
X18534529Y2540113D01*
X18534533Y2540107D01*
X18620107Y2454533D01*
X18620114Y2454528D01*
X18729802Y2403380D01*
X18779791Y2396800D01*
X18858400Y2396800D01*
X18858400Y2808400D01*
X19061600Y2808400D01*
X19061600Y2396800D01*
X19140208Y2396800D01*
X19140209Y2396801D01*
X19190194Y2403380D01*
X19190200Y2403382D01*
X19299885Y2454528D01*
X19299892Y2454533D01*
X19385466Y2540107D01*
X19385471Y2540114D01*
X19436619Y2649802D01*
X19443200Y2699790D01*
X19443200Y2808400D01*
X19061600Y2808400D01*
X18858400Y2808400D01*
X18858400Y3423199D01*
X19061600Y3423199D01*
X19061600Y3011600D01*
X19443199Y3011600D01*
X19443199Y3120208D01*
X19436619Y3170194D01*
X19436617Y3170200D01*
X19385471Y3279885D01*
X19385466Y3279892D01*
X19299892Y3365466D01*
X19299885Y3365471D01*
X19190197Y3416619D01*
X19140209Y3423199D01*
X19061600Y3423199D01*
X18858400Y3423199D01*
X18779791Y3423199D01*
X18729805Y3416619D01*
X18729799Y3416617D01*
X18620114Y3365471D01*
X18620107Y3365466D01*
X18534533Y3279892D01*
X18534528Y3279885D01*
X18521030Y3250938D01*
X18484656Y3214564D01*
X18433412Y3210082D01*
X18391275Y3239586D01*
X18388552Y3244418D01*
X18385830Y3248390D01*
X18385828Y3248396D01*
X18352425Y3281799D01*
X18303469Y3330756D01*
X18305539Y3332826D01*
X18282675Y3364747D01*
X18279900Y3384986D01*
X18279900Y9036848D01*
X18279900Y9036850D01*
X18260825Y9108037D01*
X18223976Y9171862D01*
X18171862Y9223976D01*
X17371862Y10023976D01*
X17308037Y10060825D01*
X17236850Y10079900D01*
X17236848Y10079900D01*
X16998099Y10079900D01*
X16949761Y10097493D01*
X16924041Y10142042D01*
X16922899Y10155100D01*
X16922899Y10315056D01*
X16914028Y10359658D01*
X16880234Y10410234D01*
X16829658Y10444028D01*
X16785057Y10452900D01*
X15754944Y10452899D01*
X15710342Y10444028D01*
X15710340Y10444027D01*
X15666831Y10414955D01*
X15659766Y10410234D01*
X15625972Y10359658D01*
X15625972Y10359657D01*
X15625972Y10359656D01*
X15621977Y10339576D01*
X15595290Y10295600D01*
X15546579Y10279067D01*
X15498637Y10297712D01*
X15498355Y10297961D01*
X15402395Y10382973D01*
X15402394Y10382974D01*
X15251193Y10462331D01*
X15251192Y10462332D01*
X15101600Y10499202D01*
X15101600Y10135122D01*
X15046078Y10150000D01*
X14953922Y10150000D01*
X14898400Y10135122D01*
X14898400Y10499202D01*
X14748807Y10462332D01*
X14748806Y10462331D01*
X14597605Y10382974D01*
X14597599Y10382970D01*
X14469789Y10269741D01*
X14469777Y10269728D01*
X14396328Y10163318D01*
X14354390Y10133531D01*
X14303117Y10137670D01*
X14272552Y10163318D01*
X14222295Y10236127D01*
X14222292Y10236132D01*
X14103613Y10341272D01*
X13963222Y10414956D01*
X13809276Y10452900D01*
X13650724Y10452900D01*
X13496778Y10414956D01*
X13356387Y10341272D01*
X13356386Y10341271D01*
X13356383Y10341269D01*
X13237716Y10236140D01*
X13237711Y10236134D01*
X13237708Y10236132D01*
X13237706Y10236129D01*
X13237704Y10236127D01*
X13156888Y10119044D01*
X13114950Y10089257D01*
X13063677Y10093396D01*
X13033112Y10119044D01*
X13017238Y10142042D01*
X12952292Y10236132D01*
X12833613Y10341272D01*
X12693222Y10414956D01*
X12539276Y10452900D01*
X12380724Y10452900D01*
X12226778Y10414956D01*
X12086387Y10341272D01*
X12086386Y10341271D01*
X12086383Y10341269D01*
X11967716Y10236140D01*
X11967711Y10236134D01*
X11967708Y10236132D01*
X11967706Y10236129D01*
X11967704Y10236127D01*
X11886888Y10119044D01*
X11844950Y10089257D01*
X11793677Y10093396D01*
X11763112Y10119044D01*
X11747238Y10142042D01*
X11682292Y10236132D01*
X11563613Y10341272D01*
X11423222Y10414956D01*
X11269276Y10452900D01*
X11110724Y10452900D01*
X10956778Y10414956D01*
X10816387Y10341272D01*
X10816386Y10341271D01*
X10816383Y10341269D01*
X10697716Y10236140D01*
X10697711Y10236134D01*
X10697708Y10236132D01*
X10697706Y10236129D01*
X10697704Y10236127D01*
X10616888Y10119044D01*
X10574950Y10089257D01*
X10523677Y10093396D01*
X10493112Y10119044D01*
X10477238Y10142042D01*
X10412292Y10236132D01*
X10293613Y10341272D01*
X10153222Y10414956D01*
X9999276Y10452900D01*
X9840724Y10452900D01*
X9686778Y10414956D01*
X9546387Y10341272D01*
X9546386Y10341271D01*
X9546383Y10341269D01*
X9427716Y10236140D01*
X9427707Y10236131D01*
X9337640Y10105646D01*
X9337637Y10105641D01*
X9281416Y9957399D01*
X9262305Y9800000D01*
X9281416Y9642600D01*
X9337637Y9494358D01*
X9337640Y9494353D01*
X9427707Y9363868D01*
X9427716Y9363859D01*
X9546386Y9258728D01*
X9599848Y9230668D01*
X9634473Y9192625D01*
X9640100Y9164082D01*
X9640100Y8963151D01*
X9659175Y8891961D01*
X9680825Y8854463D01*
X9690900Y8816863D01*
X9690900Y8446045D01*
X9673307Y8397707D01*
X9668874Y8392871D01*
X9230929Y7954926D01*
X9184309Y7933186D01*
X9177755Y7932900D01*
X9172016Y7932900D01*
X9147943Y7930107D01*
X9049479Y7886631D01*
X9049477Y7886629D01*
X9049474Y7886627D01*
X8973372Y7810525D01*
X8973370Y7810522D01*
X8973369Y7810521D01*
X8949602Y7756693D01*
X8929892Y7712055D01*
X8927100Y7687981D01*
X8927100Y7332018D01*
X8929892Y7307944D01*
X8973370Y7209477D01*
X8973372Y7209474D01*
X9049474Y7133372D01*
X9049480Y7133368D01*
X9132320Y7096790D01*
X9169432Y7061171D01*
X9174966Y7010029D01*
X9146332Y6967296D01*
X9131041Y6959769D01*
X9131332Y6959147D01*
X9018026Y6906312D01*
X9018019Y6906307D01*
X8933692Y6821980D01*
X8933687Y6821973D01*
X8883284Y6713883D01*
X8876800Y6664624D01*
X8876800Y6591600D01*
X8000000Y6591600D01*
X8000000Y11724800D01*
X8017593Y11773138D01*
X8062142Y11798858D01*
X8075200Y11800000D01*
X20724800Y11800000D01*
X20773138Y11782407D01*
G37*
%TD.AperFunction*%
%TD*%
M02*
