%TF.GenerationSoftware,KiCad,Pcbnew,8.0.1*%
%TF.CreationDate,2024-04-16T09:43:11+08:00*%
%TF.ProjectId,tsa,7473612e-6b69-4636-9164-5f7063625858,rev?*%
%TF.SameCoordinates,Original*%
%TF.FileFunction,Legend,Top*%
%TF.FilePolarity,Positive*%
%FSLAX46Y46*%
G04 Gerber Fmt 4.6, Leading zero omitted, Abs format (unit mm)*
G04 Created by KiCad (PCBNEW 8.0.1) date 2024-04-16 09:43:11*
%MOMM*%
%LPD*%
G01*
G04 APERTURE LIST*
%ADD10C,0.150000*%
%ADD11C,0.120000*%
G04 APERTURE END LIST*
D10*
X20357142Y-3559580D02*
X20309523Y-3607200D01*
X20309523Y-3607200D02*
X20166666Y-3654819D01*
X20166666Y-3654819D02*
X20071428Y-3654819D01*
X20071428Y-3654819D02*
X19928571Y-3607200D01*
X19928571Y-3607200D02*
X19833333Y-3511961D01*
X19833333Y-3511961D02*
X19785714Y-3416723D01*
X19785714Y-3416723D02*
X19738095Y-3226247D01*
X19738095Y-3226247D02*
X19738095Y-3083390D01*
X19738095Y-3083390D02*
X19785714Y-2892914D01*
X19785714Y-2892914D02*
X19833333Y-2797676D01*
X19833333Y-2797676D02*
X19928571Y-2702438D01*
X19928571Y-2702438D02*
X20071428Y-2654819D01*
X20071428Y-2654819D02*
X20166666Y-2654819D01*
X20166666Y-2654819D02*
X20309523Y-2702438D01*
X20309523Y-2702438D02*
X20357142Y-2750057D01*
X21309523Y-3654819D02*
X20738095Y-3654819D01*
X21023809Y-3654819D02*
X21023809Y-2654819D01*
X21023809Y-2654819D02*
X20928571Y-2797676D01*
X20928571Y-2797676D02*
X20833333Y-2892914D01*
X20833333Y-2892914D02*
X20738095Y-2940533D01*
X21642857Y-2654819D02*
X22261904Y-2654819D01*
X22261904Y-2654819D02*
X21928571Y-3035771D01*
X21928571Y-3035771D02*
X22071428Y-3035771D01*
X22071428Y-3035771D02*
X22166666Y-3083390D01*
X22166666Y-3083390D02*
X22214285Y-3131009D01*
X22214285Y-3131009D02*
X22261904Y-3226247D01*
X22261904Y-3226247D02*
X22261904Y-3464342D01*
X22261904Y-3464342D02*
X22214285Y-3559580D01*
X22214285Y-3559580D02*
X22166666Y-3607200D01*
X22166666Y-3607200D02*
X22071428Y-3654819D01*
X22071428Y-3654819D02*
X21785714Y-3654819D01*
X21785714Y-3654819D02*
X21690476Y-3607200D01*
X21690476Y-3607200D02*
X21642857Y-3559580D01*
X16633333Y-9434819D02*
X16300000Y-8958628D01*
X16061905Y-9434819D02*
X16061905Y-8434819D01*
X16061905Y-8434819D02*
X16442857Y-8434819D01*
X16442857Y-8434819D02*
X16538095Y-8482438D01*
X16538095Y-8482438D02*
X16585714Y-8530057D01*
X16585714Y-8530057D02*
X16633333Y-8625295D01*
X16633333Y-8625295D02*
X16633333Y-8768152D01*
X16633333Y-8768152D02*
X16585714Y-8863390D01*
X16585714Y-8863390D02*
X16538095Y-8911009D01*
X16538095Y-8911009D02*
X16442857Y-8958628D01*
X16442857Y-8958628D02*
X16061905Y-8958628D01*
X17204762Y-8863390D02*
X17109524Y-8815771D01*
X17109524Y-8815771D02*
X17061905Y-8768152D01*
X17061905Y-8768152D02*
X17014286Y-8672914D01*
X17014286Y-8672914D02*
X17014286Y-8625295D01*
X17014286Y-8625295D02*
X17061905Y-8530057D01*
X17061905Y-8530057D02*
X17109524Y-8482438D01*
X17109524Y-8482438D02*
X17204762Y-8434819D01*
X17204762Y-8434819D02*
X17395238Y-8434819D01*
X17395238Y-8434819D02*
X17490476Y-8482438D01*
X17490476Y-8482438D02*
X17538095Y-8530057D01*
X17538095Y-8530057D02*
X17585714Y-8625295D01*
X17585714Y-8625295D02*
X17585714Y-8672914D01*
X17585714Y-8672914D02*
X17538095Y-8768152D01*
X17538095Y-8768152D02*
X17490476Y-8815771D01*
X17490476Y-8815771D02*
X17395238Y-8863390D01*
X17395238Y-8863390D02*
X17204762Y-8863390D01*
X17204762Y-8863390D02*
X17109524Y-8911009D01*
X17109524Y-8911009D02*
X17061905Y-8958628D01*
X17061905Y-8958628D02*
X17014286Y-9053866D01*
X17014286Y-9053866D02*
X17014286Y-9244342D01*
X17014286Y-9244342D02*
X17061905Y-9339580D01*
X17061905Y-9339580D02*
X17109524Y-9387200D01*
X17109524Y-9387200D02*
X17204762Y-9434819D01*
X17204762Y-9434819D02*
X17395238Y-9434819D01*
X17395238Y-9434819D02*
X17490476Y-9387200D01*
X17490476Y-9387200D02*
X17538095Y-9339580D01*
X17538095Y-9339580D02*
X17585714Y-9244342D01*
X17585714Y-9244342D02*
X17585714Y-9053866D01*
X17585714Y-9053866D02*
X17538095Y-8958628D01*
X17538095Y-8958628D02*
X17490476Y-8911009D01*
X17490476Y-8911009D02*
X17395238Y-8863390D01*
X17254819Y8743333D02*
X16778628Y8410000D01*
X17254819Y8171905D02*
X16254819Y8171905D01*
X16254819Y8171905D02*
X16254819Y8552857D01*
X16254819Y8552857D02*
X16302438Y8648095D01*
X16302438Y8648095D02*
X16350057Y8695714D01*
X16350057Y8695714D02*
X16445295Y8743333D01*
X16445295Y8743333D02*
X16588152Y8743333D01*
X16588152Y8743333D02*
X16683390Y8695714D01*
X16683390Y8695714D02*
X16731009Y8648095D01*
X16731009Y8648095D02*
X16778628Y8552857D01*
X16778628Y8552857D02*
X16778628Y8171905D01*
X16350057Y9124286D02*
X16302438Y9171905D01*
X16302438Y9171905D02*
X16254819Y9267143D01*
X16254819Y9267143D02*
X16254819Y9505238D01*
X16254819Y9505238D02*
X16302438Y9600476D01*
X16302438Y9600476D02*
X16350057Y9648095D01*
X16350057Y9648095D02*
X16445295Y9695714D01*
X16445295Y9695714D02*
X16540533Y9695714D01*
X16540533Y9695714D02*
X16683390Y9648095D01*
X16683390Y9648095D02*
X17254819Y9076667D01*
X17254819Y9076667D02*
X17254819Y9695714D01*
X10238095Y-9854819D02*
X10238095Y-10664342D01*
X10238095Y-10664342D02*
X10285714Y-10759580D01*
X10285714Y-10759580D02*
X10333333Y-10807200D01*
X10333333Y-10807200D02*
X10428571Y-10854819D01*
X10428571Y-10854819D02*
X10619047Y-10854819D01*
X10619047Y-10854819D02*
X10714285Y-10807200D01*
X10714285Y-10807200D02*
X10761904Y-10759580D01*
X10761904Y-10759580D02*
X10809523Y-10664342D01*
X10809523Y-10664342D02*
X10809523Y-9854819D01*
X11190476Y-9854819D02*
X11809523Y-9854819D01*
X11809523Y-9854819D02*
X11476190Y-10235771D01*
X11476190Y-10235771D02*
X11619047Y-10235771D01*
X11619047Y-10235771D02*
X11714285Y-10283390D01*
X11714285Y-10283390D02*
X11761904Y-10331009D01*
X11761904Y-10331009D02*
X11809523Y-10426247D01*
X11809523Y-10426247D02*
X11809523Y-10664342D01*
X11809523Y-10664342D02*
X11761904Y-10759580D01*
X11761904Y-10759580D02*
X11714285Y-10807200D01*
X11714285Y-10807200D02*
X11619047Y-10854819D01*
X11619047Y-10854819D02*
X11333333Y-10854819D01*
X11333333Y-10854819D02*
X11238095Y-10807200D01*
X11238095Y-10807200D02*
X11190476Y-10759580D01*
X20357142Y2350419D02*
X20309523Y2302800D01*
X20309523Y2302800D02*
X20166666Y2255180D01*
X20166666Y2255180D02*
X20071428Y2255180D01*
X20071428Y2255180D02*
X19928571Y2302800D01*
X19928571Y2302800D02*
X19833333Y2398038D01*
X19833333Y2398038D02*
X19785714Y2493276D01*
X19785714Y2493276D02*
X19738095Y2683752D01*
X19738095Y2683752D02*
X19738095Y2826609D01*
X19738095Y2826609D02*
X19785714Y3017085D01*
X19785714Y3017085D02*
X19833333Y3112323D01*
X19833333Y3112323D02*
X19928571Y3207561D01*
X19928571Y3207561D02*
X20071428Y3255180D01*
X20071428Y3255180D02*
X20166666Y3255180D01*
X20166666Y3255180D02*
X20309523Y3207561D01*
X20309523Y3207561D02*
X20357142Y3159942D01*
X21309523Y2255180D02*
X20738095Y2255180D01*
X21023809Y2255180D02*
X21023809Y3255180D01*
X21023809Y3255180D02*
X20928571Y3112323D01*
X20928571Y3112323D02*
X20833333Y3017085D01*
X20833333Y3017085D02*
X20738095Y2969466D01*
X21928571Y3255180D02*
X22023809Y3255180D01*
X22023809Y3255180D02*
X22119047Y3207561D01*
X22119047Y3207561D02*
X22166666Y3159942D01*
X22166666Y3159942D02*
X22214285Y3064704D01*
X22214285Y3064704D02*
X22261904Y2874228D01*
X22261904Y2874228D02*
X22261904Y2636133D01*
X22261904Y2636133D02*
X22214285Y2445657D01*
X22214285Y2445657D02*
X22166666Y2350419D01*
X22166666Y2350419D02*
X22119047Y2302800D01*
X22119047Y2302800D02*
X22023809Y2255180D01*
X22023809Y2255180D02*
X21928571Y2255180D01*
X21928571Y2255180D02*
X21833333Y2302800D01*
X21833333Y2302800D02*
X21785714Y2350419D01*
X21785714Y2350419D02*
X21738095Y2445657D01*
X21738095Y2445657D02*
X21690476Y2636133D01*
X21690476Y2636133D02*
X21690476Y2874228D01*
X21690476Y2874228D02*
X21738095Y3064704D01*
X21738095Y3064704D02*
X21785714Y3159942D01*
X21785714Y3159942D02*
X21833333Y3207561D01*
X21833333Y3207561D02*
X21928571Y3255180D01*
X11334819Y8743333D02*
X10858628Y8410000D01*
X11334819Y8171905D02*
X10334819Y8171905D01*
X10334819Y8171905D02*
X10334819Y8552857D01*
X10334819Y8552857D02*
X10382438Y8648095D01*
X10382438Y8648095D02*
X10430057Y8695714D01*
X10430057Y8695714D02*
X10525295Y8743333D01*
X10525295Y8743333D02*
X10668152Y8743333D01*
X10668152Y8743333D02*
X10763390Y8695714D01*
X10763390Y8695714D02*
X10811009Y8648095D01*
X10811009Y8648095D02*
X10858628Y8552857D01*
X10858628Y8552857D02*
X10858628Y8171905D01*
X11334819Y9695714D02*
X11334819Y9124286D01*
X11334819Y9410000D02*
X10334819Y9410000D01*
X10334819Y9410000D02*
X10477676Y9314762D01*
X10477676Y9314762D02*
X10572914Y9219524D01*
X10572914Y9219524D02*
X10620533Y9124286D01*
X20357142Y-1589580D02*
X20309523Y-1637200D01*
X20309523Y-1637200D02*
X20166666Y-1684819D01*
X20166666Y-1684819D02*
X20071428Y-1684819D01*
X20071428Y-1684819D02*
X19928571Y-1637200D01*
X19928571Y-1637200D02*
X19833333Y-1541961D01*
X19833333Y-1541961D02*
X19785714Y-1446723D01*
X19785714Y-1446723D02*
X19738095Y-1256247D01*
X19738095Y-1256247D02*
X19738095Y-1113390D01*
X19738095Y-1113390D02*
X19785714Y-922914D01*
X19785714Y-922914D02*
X19833333Y-827676D01*
X19833333Y-827676D02*
X19928571Y-732438D01*
X19928571Y-732438D02*
X20071428Y-684819D01*
X20071428Y-684819D02*
X20166666Y-684819D01*
X20166666Y-684819D02*
X20309523Y-732438D01*
X20309523Y-732438D02*
X20357142Y-780057D01*
X21309523Y-1684819D02*
X20738095Y-1684819D01*
X21023809Y-1684819D02*
X21023809Y-684819D01*
X21023809Y-684819D02*
X20928571Y-827676D01*
X20928571Y-827676D02*
X20833333Y-922914D01*
X20833333Y-922914D02*
X20738095Y-970533D01*
X21690476Y-780057D02*
X21738095Y-732438D01*
X21738095Y-732438D02*
X21833333Y-684819D01*
X21833333Y-684819D02*
X22071428Y-684819D01*
X22071428Y-684819D02*
X22166666Y-732438D01*
X22166666Y-732438D02*
X22214285Y-780057D01*
X22214285Y-780057D02*
X22261904Y-875295D01*
X22261904Y-875295D02*
X22261904Y-970533D01*
X22261904Y-970533D02*
X22214285Y-1113390D01*
X22214285Y-1113390D02*
X21642857Y-1684819D01*
X21642857Y-1684819D02*
X22261904Y-1684819D01*
X12814819Y4923333D02*
X12338628Y4590000D01*
X12814819Y4351905D02*
X11814819Y4351905D01*
X11814819Y4351905D02*
X11814819Y4732857D01*
X11814819Y4732857D02*
X11862438Y4828095D01*
X11862438Y4828095D02*
X11910057Y4875714D01*
X11910057Y4875714D02*
X12005295Y4923333D01*
X12005295Y4923333D02*
X12148152Y4923333D01*
X12148152Y4923333D02*
X12243390Y4875714D01*
X12243390Y4875714D02*
X12291009Y4828095D01*
X12291009Y4828095D02*
X12338628Y4732857D01*
X12338628Y4732857D02*
X12338628Y4351905D01*
X11814819Y5780476D02*
X11814819Y5590000D01*
X11814819Y5590000D02*
X11862438Y5494762D01*
X11862438Y5494762D02*
X11910057Y5447143D01*
X11910057Y5447143D02*
X12052914Y5351905D01*
X12052914Y5351905D02*
X12243390Y5304286D01*
X12243390Y5304286D02*
X12624342Y5304286D01*
X12624342Y5304286D02*
X12719580Y5351905D01*
X12719580Y5351905D02*
X12767200Y5399524D01*
X12767200Y5399524D02*
X12814819Y5494762D01*
X12814819Y5494762D02*
X12814819Y5685238D01*
X12814819Y5685238D02*
X12767200Y5780476D01*
X12767200Y5780476D02*
X12719580Y5828095D01*
X12719580Y5828095D02*
X12624342Y5875714D01*
X12624342Y5875714D02*
X12386247Y5875714D01*
X12386247Y5875714D02*
X12291009Y5828095D01*
X12291009Y5828095D02*
X12243390Y5780476D01*
X12243390Y5780476D02*
X12195771Y5685238D01*
X12195771Y5685238D02*
X12195771Y5494762D01*
X12195771Y5494762D02*
X12243390Y5399524D01*
X12243390Y5399524D02*
X12291009Y5351905D01*
X12291009Y5351905D02*
X12386247Y5304286D01*
X14294819Y8743333D02*
X13818628Y8410000D01*
X14294819Y8171905D02*
X13294819Y8171905D01*
X13294819Y8171905D02*
X13294819Y8552857D01*
X13294819Y8552857D02*
X13342438Y8648095D01*
X13342438Y8648095D02*
X13390057Y8695714D01*
X13390057Y8695714D02*
X13485295Y8743333D01*
X13485295Y8743333D02*
X13628152Y8743333D01*
X13628152Y8743333D02*
X13723390Y8695714D01*
X13723390Y8695714D02*
X13771009Y8648095D01*
X13771009Y8648095D02*
X13818628Y8552857D01*
X13818628Y8552857D02*
X13818628Y8171905D01*
X13294819Y9648095D02*
X13294819Y9171905D01*
X13294819Y9171905D02*
X13771009Y9124286D01*
X13771009Y9124286D02*
X13723390Y9171905D01*
X13723390Y9171905D02*
X13675771Y9267143D01*
X13675771Y9267143D02*
X13675771Y9505238D01*
X13675771Y9505238D02*
X13723390Y9600476D01*
X13723390Y9600476D02*
X13771009Y9648095D01*
X13771009Y9648095D02*
X13866247Y9695714D01*
X13866247Y9695714D02*
X14104342Y9695714D01*
X14104342Y9695714D02*
X14199580Y9648095D01*
X14199580Y9648095D02*
X14247200Y9600476D01*
X14247200Y9600476D02*
X14294819Y9505238D01*
X14294819Y9505238D02*
X14294819Y9267143D01*
X14294819Y9267143D02*
X14247200Y9171905D01*
X14247200Y9171905D02*
X14199580Y9124286D01*
X20357142Y380419D02*
X20309523Y332800D01*
X20309523Y332800D02*
X20166666Y285180D01*
X20166666Y285180D02*
X20071428Y285180D01*
X20071428Y285180D02*
X19928571Y332800D01*
X19928571Y332800D02*
X19833333Y428038D01*
X19833333Y428038D02*
X19785714Y523276D01*
X19785714Y523276D02*
X19738095Y713752D01*
X19738095Y713752D02*
X19738095Y856609D01*
X19738095Y856609D02*
X19785714Y1047085D01*
X19785714Y1047085D02*
X19833333Y1142323D01*
X19833333Y1142323D02*
X19928571Y1237561D01*
X19928571Y1237561D02*
X20071428Y1285180D01*
X20071428Y1285180D02*
X20166666Y1285180D01*
X20166666Y1285180D02*
X20309523Y1237561D01*
X20309523Y1237561D02*
X20357142Y1189942D01*
X21309523Y285180D02*
X20738095Y285180D01*
X21023809Y285180D02*
X21023809Y1285180D01*
X21023809Y1285180D02*
X20928571Y1142323D01*
X20928571Y1142323D02*
X20833333Y1047085D01*
X20833333Y1047085D02*
X20738095Y999466D01*
X22261904Y285180D02*
X21690476Y285180D01*
X21976190Y285180D02*
X21976190Y1285180D01*
X21976190Y1285180D02*
X21880952Y1142323D01*
X21880952Y1142323D02*
X21785714Y1047085D01*
X21785714Y1047085D02*
X21690476Y999466D01*
X9854819Y8743333D02*
X9378628Y8410000D01*
X9854819Y8171905D02*
X8854819Y8171905D01*
X8854819Y8171905D02*
X8854819Y8552857D01*
X8854819Y8552857D02*
X8902438Y8648095D01*
X8902438Y8648095D02*
X8950057Y8695714D01*
X8950057Y8695714D02*
X9045295Y8743333D01*
X9045295Y8743333D02*
X9188152Y8743333D01*
X9188152Y8743333D02*
X9283390Y8695714D01*
X9283390Y8695714D02*
X9331009Y8648095D01*
X9331009Y8648095D02*
X9378628Y8552857D01*
X9378628Y8552857D02*
X9378628Y8171905D01*
X9188152Y9600476D02*
X9854819Y9600476D01*
X8807200Y9362381D02*
X9521485Y9124286D01*
X9521485Y9124286D02*
X9521485Y9743333D01*
X15774819Y8743333D02*
X15298628Y8410000D01*
X15774819Y8171905D02*
X14774819Y8171905D01*
X14774819Y8171905D02*
X14774819Y8552857D01*
X14774819Y8552857D02*
X14822438Y8648095D01*
X14822438Y8648095D02*
X14870057Y8695714D01*
X14870057Y8695714D02*
X14965295Y8743333D01*
X14965295Y8743333D02*
X15108152Y8743333D01*
X15108152Y8743333D02*
X15203390Y8695714D01*
X15203390Y8695714D02*
X15251009Y8648095D01*
X15251009Y8648095D02*
X15298628Y8552857D01*
X15298628Y8552857D02*
X15298628Y8171905D01*
X14774819Y9076667D02*
X14774819Y9695714D01*
X14774819Y9695714D02*
X15155771Y9362381D01*
X15155771Y9362381D02*
X15155771Y9505238D01*
X15155771Y9505238D02*
X15203390Y9600476D01*
X15203390Y9600476D02*
X15251009Y9648095D01*
X15251009Y9648095D02*
X15346247Y9695714D01*
X15346247Y9695714D02*
X15584342Y9695714D01*
X15584342Y9695714D02*
X15679580Y9648095D01*
X15679580Y9648095D02*
X15727200Y9600476D01*
X15727200Y9600476D02*
X15774819Y9505238D01*
X15774819Y9505238D02*
X15774819Y9219524D01*
X15774819Y9219524D02*
X15727200Y9124286D01*
X15727200Y9124286D02*
X15679580Y9076667D01*
X16433333Y-7454819D02*
X16100000Y-6978628D01*
X15861905Y-7454819D02*
X15861905Y-6454819D01*
X15861905Y-6454819D02*
X16242857Y-6454819D01*
X16242857Y-6454819D02*
X16338095Y-6502438D01*
X16338095Y-6502438D02*
X16385714Y-6550057D01*
X16385714Y-6550057D02*
X16433333Y-6645295D01*
X16433333Y-6645295D02*
X16433333Y-6788152D01*
X16433333Y-6788152D02*
X16385714Y-6883390D01*
X16385714Y-6883390D02*
X16338095Y-6931009D01*
X16338095Y-6931009D02*
X16242857Y-6978628D01*
X16242857Y-6978628D02*
X15861905Y-6978628D01*
X16766667Y-6454819D02*
X17433333Y-6454819D01*
X17433333Y-6454819D02*
X17004762Y-7454819D01*
X17859819Y9466666D02*
X18574104Y9466666D01*
X18574104Y9466666D02*
X18716961Y9419047D01*
X18716961Y9419047D02*
X18812200Y9323809D01*
X18812200Y9323809D02*
X18859819Y9180952D01*
X18859819Y9180952D02*
X18859819Y9085714D01*
X18859819Y10466666D02*
X18859819Y9895238D01*
X18859819Y10180952D02*
X17859819Y10180952D01*
X17859819Y10180952D02*
X18002676Y10085714D01*
X18002676Y10085714D02*
X18097914Y9990476D01*
X18097914Y9990476D02*
X18145533Y9895238D01*
D11*
%TO.C,C13*%
X18372164Y-2640000D02*
X18587836Y-2640000D01*
X18372164Y-3360000D02*
X18587836Y-3360000D01*
%TO.C,R8*%
X14663641Y-8610000D02*
X14356359Y-8610000D01*
X14663641Y-9370000D02*
X14356359Y-9370000D01*
%TO.C,R2*%
X16420000Y7153641D02*
X16420000Y6846359D01*
X17180000Y7153641D02*
X17180000Y6846359D01*
%TO.C,U3*%
X11000000Y-6440000D02*
X10200000Y-6440000D01*
X11000000Y-6440000D02*
X11800000Y-6440000D01*
X11000000Y-9560000D02*
X10200000Y-9560000D01*
X11000000Y-9560000D02*
X11800000Y-9560000D01*
X12540000Y-9840000D02*
X12060000Y-9840000D01*
X12300000Y-9510000D01*
X12540000Y-9840000D01*
G36*
X12540000Y-9840000D02*
G01*
X12060000Y-9840000D01*
X12300000Y-9510000D01*
X12540000Y-9840000D01*
G37*
%TO.C,C10*%
X18372164Y3270000D02*
X18587836Y3270000D01*
X18372164Y2550000D02*
X18587836Y2550000D01*
%TO.C,R1*%
X10500000Y7153641D02*
X10500000Y6846359D01*
X11260000Y7153641D02*
X11260000Y6846359D01*
%TO.C,C12*%
X18372164Y-670000D02*
X18587836Y-670000D01*
X18372164Y-1390000D02*
X18587836Y-1390000D01*
%TO.C,R6*%
X11980000Y6846359D02*
X11980000Y7153641D01*
X12740000Y6846359D02*
X12740000Y7153641D01*
%TO.C,R5*%
X13460000Y7153641D02*
X13460000Y6846359D01*
X14220000Y7153641D02*
X14220000Y6846359D01*
%TO.C,C11*%
X18372164Y1300000D02*
X18587836Y1300000D01*
X18372164Y580000D02*
X18587836Y580000D01*
%TO.C,R4*%
X9020000Y7153641D02*
X9020000Y6846359D01*
X9780000Y7153641D02*
X9780000Y6846359D01*
%TO.C,R3*%
X14940000Y7153641D02*
X14940000Y6846359D01*
X15700000Y7153641D02*
X15700000Y6846359D01*
%TO.C,R7*%
X14663641Y-6620000D02*
X14356359Y-6620000D01*
X14663641Y-7380000D02*
X14356359Y-7380000D01*
%TO.C,J1*%
X9225000Y11130000D02*
X9225000Y10107530D01*
X9225000Y9492470D02*
X9225000Y8470000D01*
X15635000Y11130000D02*
X9225000Y11130000D01*
X15635000Y11130000D02*
X15635000Y10560000D01*
X15635000Y9040000D02*
X15635000Y8470000D01*
X15635000Y8470000D02*
X9225000Y8470000D01*
X17030000Y9800000D02*
X17030000Y8470000D01*
X17030000Y8470000D02*
X16270000Y8470000D01*
%TD*%
M02*
