M48
; DRILL file {KiCad 8.0.1} date 2024-04-16T09:43:09+0800
; FORMAT={-:-/ absolute / inch / decimal}
; #@! TF.CreationDate,2024-04-16T09:43:09+08:00
; #@! TF.GenerationSoftware,Kicad,Pcbnew,8.0.1
; #@! TF.FileFunction,Plated,1,2,PTH
FMAT,2
INCH
; #@! TA.AperFunction,Plated,PTH,ViaDrill
T1C0.0120
; #@! TA.AperFunction,Plated,PTH,ComponentDrill
T2C0.0276
%
G90
G05
T1
X0.378Y0.4409
X0.3923Y-0.0236
X0.3937Y0.0264
X0.4016Y-0.4331
X0.4094Y0.126
X0.4173Y0.0264
X0.4173Y-0.0236
X0.4336Y0.1196
X0.4423Y0.0264
X0.4423Y-0.0236
X0.4488Y0.1732
X0.4673Y0.0264
X0.4673Y-0.0236
X0.4781Y-0.189
X0.4803Y0.4409
X0.4882Y0.2306
X0.4923Y0.0264
X0.4923Y-0.0236
X0.5197Y-0.2756
X0.5197Y-0.4331
X0.5433Y0.3228
X0.5591Y-0.3307
X0.5748Y0.2756
X0.5748Y0.2362
X0.5827Y0.4409
X0.622Y-0.4331
X0.6929Y0.4409
X0.7008Y0.1417
X0.7244Y-0.4331
X0.8031Y0.2441
X0.8031Y-0.0079
X0.8031Y-0.3228
T2
X0.3906Y0.3858
X0.4406Y0.3858
X0.4906Y0.3858
X0.5406Y0.3858
X0.5906Y0.3858
X0.6406Y0.3858
M30
