%TF.GenerationSoftware,KiCad,Pcbnew,8.0.1*%
%TF.CreationDate,2024-04-16T09:43:11+08:00*%
%TF.ProjectId,tsa,7473612e-6b69-4636-9164-5f7063625858,rev?*%
%TF.SameCoordinates,Original*%
%TF.FileFunction,Profile,NP*%
%FSLAX46Y46*%
G04 Gerber Fmt 4.6, Leading zero omitted, Abs format (unit mm)*
G04 Created by KiCad (PCBNEW 8.0.1) date 2024-04-16 09:43:11*
%MOMM*%
%LPD*%
G01*
G04 APERTURE LIST*
%TA.AperFunction,Profile*%
%ADD10C,0.500000*%
%TD*%
G04 APERTURE END LIST*
D10*
X32550000Y0D02*
G75*
G02*
X29450000Y0I-1550000J0D01*
G01*
X29450000Y0D02*
G75*
G02*
X32550000Y0I1550000J0D01*
G01*
X36500000Y0D02*
G75*
G02*
X-36500000Y0I-36500000J0D01*
G01*
X-36500000Y0D02*
G75*
G02*
X36500000Y0I36500000J0D01*
G01*
X28396788Y15500000D02*
G75*
G02*
X25296788Y15500000I-1550000J0D01*
G01*
X25296788Y15500000D02*
G75*
G02*
X28396788Y15500000I1550000J0D01*
G01*
X28396788Y-15500000D02*
G75*
G02*
X25296788Y-15500000I-1550000J0D01*
G01*
X25296788Y-15500000D02*
G75*
G02*
X28396788Y-15500000I1550000J0D01*
G01*
X1550000Y31000000D02*
G75*
G02*
X-1550000Y31000000I-1550000J0D01*
G01*
X-1550000Y31000000D02*
G75*
G02*
X1550000Y31000000I1550000J0D01*
G01*
X7500000Y0D02*
G75*
G02*
X-7500000Y0I-7500000J0D01*
G01*
X-7500000Y0D02*
G75*
G02*
X7500000Y0I7500000J0D01*
G01*
X-29450000Y0D02*
G75*
G02*
X-32550000Y0I-1550000J0D01*
G01*
X-32550000Y0D02*
G75*
G02*
X-29450000Y0I1550000J0D01*
G01*
X1550000Y-31000000D02*
G75*
G02*
X-1550000Y-31000000I-1550000J0D01*
G01*
X-1550000Y-31000000D02*
G75*
G02*
X1550000Y-31000000I1550000J0D01*
G01*
X-25296787Y-15500000D02*
G75*
G02*
X-28396787Y-15500000I-1550000J0D01*
G01*
X-28396787Y-15500000D02*
G75*
G02*
X-25296787Y-15500000I1550000J0D01*
G01*
X-25296787Y15500000D02*
G75*
G02*
X-28396787Y15500000I-1550000J0D01*
G01*
X-28396787Y15500000D02*
G75*
G02*
X-25296787Y15500000I1550000J0D01*
G01*
M02*
